<svg width="24" height="31" viewBox="0 0 24 31" fill="none" xmlns="http://www.w3.org/2000/svg">
<path d="M12 0.272766C5.78906 0.272766 0.75 5.76993 0.75 12.5455C0.764647 13.9997 1.00635 15.4379 1.4751 16.7962L1.4458 16.7882C2.63965 20.8552 8.53565 27.1833 11.9927 30.9626H12V30.9546C14.8271 27.8704 19.2729 22.9246 21.4629 19.1852C21.9536 18.3383 22.3418 17.5313 22.5615 16.7882L22.5249 16.7962C22.9937 15.4379 23.2427 13.9997 23.25 12.5455C23.25 5.76993 18.2183 0.272766 12 0.272766ZM12 7.82337C14.3877 7.82337 16.3286 9.94073 16.3286 12.5455C16.3286 15.1503 14.3877 17.2676 12 17.2676C9.6123 17.2596 7.67871 15.1503 7.67871 12.5455C7.67139 9.94073 9.6123 7.83136 12 7.82337Z" fill="#323232"/>
</svg>
